# xmcd CD database file
#
# Track frame offsets:
#	150
#	21140
#	52372
#	89212
#	128272
#	155562
#	184927
#	207985
#	230892
#
# Disc length: 3402 seconds
#
# Revision: 0
# Processed by: cddbd v1.5.1PL2 Copyright (c) Steve Scherf et al.
# Submitted via: CDex 1.60beta1-cs1
#
DISCID=830d4809
DTITLE=Kei Akagi Trio - A Hint Of You
DYEAR=2003
DGENRE=Jazz
TTITLE0=Evening Hymn
TTITLE1=A Hint Of You
TTITLE2=Vertical Fragments
TTITLE3=Don't Explain
TTITLE4=Hough Avenue Stomp
TTITLE5=Stablemates
TTITLE6=Glance
TTITLE7=Subconscious Lee
TTITLE8=Everything
EXTD=YEAR: 2003
EXTT0=
EXTT1=
EXTT2=
EXTT3=
EXTT4=
EXTT5=
EXTT6=
EXTT7=
EXTT8=
PLAYORDER=
